<svg xmlns="http://www.w3.org/2000/svg" xmlns:xlink="http://www.w3.org/1999/xlink" version="1.1" x="0px" y="0px" viewBox="0 0 100 100" enable-background="new 0 0 100 100" xml:space="preserve"><g><g><path d="M62.084,45.528c-1.674,0.009-3.334,0.117-4.983,0.307c1.282-4.406,4.266-9.199,9.307-9.111    c1.471,0.026,1.471-2.259,0-2.285c-5.115-0.09-8.641,3.764-10.568,8.177c-2.015-4.296-6.444-7.245-11.323-7.306    c-1.471-0.018-1.471,2.266,0,2.285c5.006,0.063,9.166,3.747,10.065,8.605c-0.984,0.17-1.965,0.363-2.942,0.598    c-1.429,0.343-0.824,2.547,0.607,2.203c3.242-0.778,6.502-1.169,9.836-1.188C63.554,47.805,63.557,45.52,62.084,45.528z"></path><path d="M78.375,74.995c-5.115-0.09-8.641,3.764-10.568,8.177c-2.015-4.296-6.444-7.245-11.324-7.306    c-1.471-0.018-1.471,2.266,0,2.285c5.007,0.063,9.166,3.747,10.065,8.605c-0.984,0.17-1.965,0.363-2.942,0.598    c-1.429,0.343-0.824,2.547,0.607,2.203c3.242-0.778,6.502-1.169,9.836-1.188c1.47-0.008,1.473-2.293,0-2.285    c-1.674,0.009-3.334,0.117-4.983,0.307c1.282-4.406,4.266-9.199,9.307-9.111C79.846,77.305,79.846,75.021,78.375,74.995z"></path><path d="M43.602,61.674c-1.862-0.033-3.287,1.075-4.226,2.549c-1.053-1.327-2.691-2.183-4.427-2.205    c-1.471-0.018-1.471,2.266,0,2.285c1.437,0.018,2.588,0.925,3.096,2.183c-0.154,0.033-0.31,0.061-0.464,0.098    c-1.429,0.343-0.824,2.547,0.607,2.203c1.225-0.294,2.445-0.438,3.704-0.445c1.47-0.008,1.473-2.293,0-2.285    c-0.315,0.002-0.63,0.015-0.944,0.033c0.513-1.137,1.358-2.154,2.654-2.131C45.073,63.984,45.073,61.7,43.602,61.674z"></path><path d="M22.531,53.285c-3.743-0.066-6.405,2.587-7.944,5.763c-1.662-3.027-4.927-5.065-8.483-5.11    c-1.471-0.018-1.471,2.266,0,2.285c3.533,0.044,6.45,2.569,7.217,5.936c-0.651,0.118-1.3,0.254-1.947,0.41    c-1.429,0.343-0.824,2.547,0.607,2.203c2.409-0.578,4.828-0.867,7.305-0.881c1.47-0.008,1.473-2.293,0-2.285    c-1.122,0.006-2.236,0.079-3.345,0.193c0.986-3.073,3.094-6.291,6.59-6.229C24.001,55.596,24.002,53.311,22.531,53.285z"></path><path d="M40.75,26.366c-1.123,0.006-2.236,0.079-3.345,0.193c0.986-3.073,3.094-6.291,6.59-6.23c1.471,0.026,1.471-2.259,0-2.285    c-3.743-0.066-6.405,2.587-7.944,5.763c-1.662-3.027-4.927-5.065-8.483-5.11c-1.471-0.018-1.471,2.266,0,2.285    c3.533,0.044,6.45,2.569,7.217,5.936c-0.651,0.118-1.3,0.254-1.947,0.41c-1.429,0.343-0.824,2.547,0.607,2.203    c2.409-0.578,4.828-0.867,7.305-0.881C42.22,28.643,42.223,26.358,40.75,26.366z"></path><path d="M93.897,10.41c-7.229-0.127-12.073,5.635-14.555,11.943c-2.486-6.267-8.676-10.658-15.589-10.744    c-1.471-0.018-1.471,2.266,0,2.285c7.174,0.09,13.189,5.441,14.335,12.469c-0.012,0.051-0.028,0.103-0.04,0.155    c-0.002,0.009-0.001,0.016-0.003,0.025c-1.46,0.243-2.917,0.521-4.369,0.869c-1.429,0.343-0.824,2.547,0.607,2.203    c4.5-1.08,9.032-1.625,13.659-1.651c1.47-0.008,1.473-2.293,0-2.285c-2.506,0.014-4.986,0.183-7.449,0.494    c1.71-6.413,6.021-13.607,13.404-13.477C95.368,12.721,95.368,10.436,93.897,10.41z"></path></g></g></svg>