<svg xmlns="http://www.w3.org/2000/svg" xmlns:xlink="http://www.w3.org/1999/xlink" version="1.1" x="0px" y="0px" viewBox="0 0 80 80" enable-background="new 0 0 80 80" xml:space="preserve"><g><g><path d="M14,46.6c-0.3-1.3-0.7-2.7-1.1-4c-0.1-0.3-0.4-0.5-0.5-0.7c-0.1-0.3,0-0.6,0.1-0.9c0.8,0,1,0.7,1.3,1.1    c0.5,0.7,0.8,1.6,1,2.4c0.7,2.3,2,4,4,5.3c1,0.6,1.9,1.3,2.9,2c0.2,0.2,0.5,0.3,0.9,0.5c-0.5-0.9-0.7-1.9-1.8-2.1    c-0.3-0.1-0.5-0.4-0.7-0.7c0.1-0.1,0.1-0.1,0.2-0.2c0.9,0.3,1.8,0.6,2.7,0.9c0-0.1,0.1-0.1,0.1-0.2c-1.3-0.6-3-0.7-3.6-2.3    c0-0.1,0.1-0.1,0.1-0.2c0.2,0.1,0.3,0.2,0.5,0.3c0.5,0.3,1.1,0.7,1.7,1c0.9,0.4,1.1,0.2,1.4-0.7c0.1-0.4,0.2-0.8,0.3-1.4    c-0.7,0.4-1.3,1.1-2.2,0.7c0.1-0.1,0.1-0.3,0.2-0.4c0.4-0.6,0.8-1.1,1.2-1.7c0.4-0.7,0.4-1.2-0.1-1.9c-0.6-0.7-1.2-1.4-1.8-2.2    c-0.1-0.1-0.3-0.3-0.5-0.3c-2.4,0-4.4-1-6-2.7c-1.2-1.3-1.9-2.9-2.4-4.5c-0.1-0.4-0.3-0.9-0.5-1.3c1-0.8,2-0.3,2.9,0    c1.3,0.3,2.5,0.6,3.7,1.4c1.8,1.2,3.2,2.8,3.8,4.9c0.2,0.6,0,1.3,0,1.9c0,0.3,0.1,0.6,0.2,0.8c0.5,0.6,1,1.2,1.4,1.9    c0.1,0.2,0.2,0.4,0.2,0.5c0.9-0.7,1.9-1.4,2.8-2c-0.6-0.7-1.3-1.4-1.9-2.1c-0.6-0.7-0.5-0.8,0.1-1.7c0.2,0.4,0.3,0.9,0.6,1.2    c0.4,0.5,0.9,1,1.5,1.5c0.1,0.1,0.4,0.1,0.4,0c0.1-0.1,0.1-0.3,0.1-0.4c-0.1-0.5-0.4-1.1-0.5-1.6c-0.2-0.6-0.4-1.2,0-1.8    c0.1,0.4,0.2,0.9,0.4,1.3c0.3,0.7,0.6,1.3,0.9,2c0.2,0.5,0.7,0.5,1.1,0.5c1.4-0.2,2.8-0.3,4.2-0.5c0.5-0.1,0.9-0.2,1.3-0.4    c-1.9-0.1-3.9-0.1-5.8-0.2c0-0.1,0-0.2,0-0.3c1.3-0.9,2.9-0.5,4.4-1c1.4-0.4,2.9-0.7,4.4-1c-0.3-0.2-0.6-0.5-0.9-0.8    c-0.2-0.2-0.3-0.6-0.3-0.9c0-0.4,0.2-0.6,0.7-0.4c1.4,0.6,2.8,1.3,4.3,1.7c0.9,0.3,1.8,0.2,2.7,0.3c0-0.1,0-0.1,0-0.2    c-0.4-0.3-0.8-0.5-1.2-0.8c-0.1-0.1-0.2-0.3-0.3-0.5c0.2,0,0.4,0,0.6,0c0.9,0.5,1.7,1,2.6,1.5c0.2,0.1,0.4,0.2,0.6,0.2    c1.2,0.1,2.4,0.4,3.4,1c0.2,0.1,0.4,0.1,0.6,0.2c-0.1-1.3-0.7-2.3-1.4-3.2c-0.3-0.4-0.7-0.5-1.2-0.5c-2,0.2-4,0.1-5.9-0.8    c-1.1-0.6-2.2-1.2-3.3-1.9c-0.3-0.2-0.4-0.6-0.4-0.9c1.4,0.6,2.7,1.3,4.2,1.8c1.5,0.4,3,0.3,4.7,0c-0.4-0.4-0.7-0.7-1.1-1    c-1.4-1.1-2.9-2.1-4.5-2.7c-0.7-0.3-1.4-0.9-2-1.4c-0.8-0.6-1.8-0.4-2.2,0.5c-0.8,2.3-2.6,2.8-4.8,3.1c-1.5,0.2-2.9-0.3-4.4-0.5    c-0.5-0.1-1-0.1-1.5-0.1c-0.6,0-1-0.2-1.4-0.7c0.3-0.1,0.6-0.1,0.8-0.2c0.8-0.3,1.6-0.5,2.3-0.9c1.5-0.7,2.9-1.6,4.4-2.2    c1.3-0.5,2.8-0.7,4.2,0c0.2,0.1,0.4,0,0.8,0.1c-0.3-0.4-0.4-0.6-0.5-0.8c-0.6-0.7-1.2-1.5-1.7-2.2c-0.3-0.4-0.7-0.6-1.3-0.4    c-1.1,0.3-2.2,0.3-3.2-0.1c-1.8-0.7-3.2-1.8-4.2-3.4c-0.7-1-1.3-2.1-2.4-2.7c-0.2-0.1-0.3-0.3-0.5-0.5c1.7-0.3,3.2-0.4,4.8,0    c1.1,0.3,2.1,0.8,3.1,1.3c0.8,0.4,1.7,0.9,2.3,1.6c0.8,0.8,1.5,1.7,2.1,2.8c0.8,1.6,2.1,2.9,3.9,3.8c-1.8-3.7-2.1-7.3,0.3-10.8    c0.1,0.1,0.2,0.2,0.2,0.4c0.6,1.5,1.3,2.9,1.9,4.4c0.5,1.4,0.6,2.8,0,4.1c-0.2,0.6-0.7,1-1,1.6c-0.1,0.2-0.3,0.4-0.5,0.7    c3.6,1.6,7,3.4,9.8,6.2c0.8-1.2,1.6-2.3,1.1-3.7c-1-2.5-0.6-4.9,0.1-7.4c0.4-1.4,1.4-2.4,2.4-3.3c0.4-0.3,0.8-0.7,1.2-1.1    c0,0.9-0.2,1.7-0.1,2.5c0.2,1.7,0.6,3.3,0.7,5c0.1,0.9-0.2,1.8-0.5,2.7c-0.2,0.7-0.7,1.2-0.9,1.9c-0.4,1.1-1.4,1.7-2.2,2.5    c-0.7,0.6-0.9,1.8-0.4,2.6c0.8,1.2,1.6,2.5,2.4,3.7c0.9-0.2,1.3-0.6,1.4-1.5c0.2-1.1,0.5-2.1,0.8-3.2c0.7-2,2.3-3.3,3.8-4.5    c0.9-0.7,1.8-1.5,2.6-2.3c0.1-0.1,0.3,0,0.4-0.1c0,0.2,0.1,0.4,0.1,0.6c-0.2,1.2-0.5,2.4-0.6,3.6c-0.1,1.3-0.3,2.5-0.8,3.6    c-0.6,1.4-1.6,2.4-2.9,3c-0.3,0.2-0.6,0.4-0.9,0.6c-0.5,0.3-1,0.6-1.6,0.5c-0.5,0-1,0.3-1.4,0.6c-0.4,0.2-0.2,0.6,0.2,0.7    c0.3,0.1,0.6,0.1,0.8,0c1.4-0.4,2.8,0.2,4.1,0.1c0.2,0,0.4,0.2,0.6,0.2c0,0.1,0,0.1,0,0.2c-1.3,0.3-2.6,0.6-4,0.8    c0,0.1,0,0.1,0,0.2c0.5,0.3,0.9,0.5,1.4,0.8c0.1,0,0.3-0.1,0.4-0.2c0.2-0.2,0.4-0.4,0.7-0.8c0.3,0.9-0.6,1.3-0.4,2.2    c1.3,0.3,2.4-0.6,3.6-0.9c0.1,0,0.1,0.1,0.2,0.1c-0.2,0.5-0.5,0.9-0.8,1.4c0.3,0.4,0.2,0.5-0.3,0.8c-0.8,0.4-1.9,0.5-2.3,1.4    c-0.1,0.3-0.1,0.6-0.1,0.9c0.3-0.1,0.5-0.1,0.8-0.2c1.1-0.6,2.2-1.3,3.4-1.9c0.1-0.1,0.3-0.1,0.5-0.1c0.1,0.5-0.2,0.8-0.6,1    c-1.3,0.4-2.3,1.3-3.2,2.5c1.2-0.8,2.4-1.5,3.5-2.3c0.5,0.7,0,0.8-0.3,1c-0.8,0.6-1.6,1.1-2.5,1.7c-0.1,0.1-0.1,0.2-0.2,0.3    c0.9-0.2,1.7-0.4,2.5-0.5c0,0.1,0.1,0.2,0.1,0.3c-0.9,0.5-1.7,1-2.8,1.6c0.8,0.8,1.6,1.6,2.4,2.3c0.9,0.8,1.9,1.5,2.9,2.2    c0.6,0.4,1.2,0.5,1.8,0.8c1.4,0.7,2.7,1.4,4.1,2.2c0.2,0.1,0.4,0.4,0.6,0.6c0.3,0.3,0.7,0.5,1.1,0.8c0.2,0.2,0.4,0.3,0.5,0.5    c0,0.1-0.1,0.1-0.1,0.2c-1.2,0-2.3,0-3.6,0c0.2,0.2,0.4,0.4,0.7,0.6c-0.1,0.2-0.2,0.5-0.3,0.8c-0.1,0.3-0.4,0.5,0,0.8    c0,0-0.2,0.5-0.3,0.5c-0.4,0-0.8,0-1.1-0.1c-0.8-0.3-1.5-0.7-2.3-0.9c-0.1,0-0.5,0.2-0.5,0.4c-0.1,0.3,0,0.6,0,1    c-0.3-0.2-0.5-0.3-0.8-0.4c0,0.9-0.4,0.8-0.9,0.6c-1.4-0.5-2.7-1.2-3.9-2.1c-1.8-1.3-3.7-2.5-6-2.6c-1.6-0.1-3,0-4.5,0.7    c-2.2,1-4.6,1.7-7,2c-0.5,0.1-1.1,0.2-1.6,0.8c-0.5,0.5-1.3,0.9-2,1c-0.9,0.1-1.9,0-2.7-0.3c-0.5-0.2-1-0.7-1.4-1.1    c-0.2-0.1-0.2-0.3-0.4-0.5c-0.8-1.2-2.3-1.5-3.5-2c-1.7-0.7-3.5-1.2-5.3-1.9c-0.1,0-0.2,0-0.3-0.1c-1.2-1.1-2.5-0.6-3.7,0    c-0.4,0.2-0.7,0.7-0.8,1.1c-0.4,1.8-1.8,2.6-3.3,3.2c-1.7,0.7-3.4,0.8-5.2,0.7c-0.4,0-0.7,0.2-1.1,0.3c-0.5,0.1-0.9,0.3-1.4,0.3    c-0.2,0-0.6-0.1-0.7-0.3c-0.1-0.1,0.1-0.5,0.2-0.7c0.5-0.6,1-1.2,1.6-1.8c1.2-1.2,2.3-2.4,3.8-3.2c1.6-0.9,3.3-1.2,5-0.4    c1.1,0.5,1.8,0.1,2.6-0.4c0-0.1,0-0.1,0-0.2c-1.5-0.4-3.1-0.8-4.7-1.1c-1.2-0.2-2.5-0.5-3.7-0.5c-1.4,0-2.8,0.1-4,1    c-0.5,0.3-1.1,0.6-1.6,0c-0.3-0.3-0.3-0.4,0-0.6C9,55,9.1,54.9,9.3,54.8c0.8-0.3,1.6-0.6,2.3-1.1c0.9-0.6,2.2-0.6,3.4-0.8    c0.7-0.1,1.4,0,2.2,0c0-0.1,0.1-0.1,0.1-0.2c-0.7-0.8-1.4-1.6-2.2-2.3c-1-1-2.1-1.9-3.1-2.9c-0.6-0.6-1.3-1.1-1.9-1.8    c-0.6-0.7-1.1-1.5-1.7-2.2c-0.3-0.4-0.7-0.7-1.1-1c-0.7-0.5-1.4-0.9-2.1-1.3c-0.4-0.3-0.4-0.7-0.1-1.1c0.3-0.4,0.6-0.4,1-0.2    c2,0.9,3.6,2.3,4.7,4.1c0.7,1.2,1.9,1.9,2.9,2.7C14,46.7,14,46.6,14,46.6z M56.8,45.4c0.1,0.2,0.2,0.4,0.3,0.5    c0.4,0.5,0.3,0.9-0.3,1.1c0.2,0.9,0,1.8-0.4,2.6c-0.4,0.7-1.1,1.2-1.7,1.9c0.1,0,0.3,0,0.4-0.1c0.5-0.3,1-0.6,1.4-1.1    c0.7-1,2.4-1.2,1.9-3c0-0.1,0.1-0.2,0.1-0.3c0-0.1,0.1-0.3,0-0.4c-0.4-0.6,0-1,0.2-1.4c0.1-0.2,0.2-0.4,0.3-0.5    c-0.4-0.7-0.7-0.1-1.1,0.1c-0.1-1-0.3-1.9-1.4-2.2c-0.1,0-0.2-0.3-0.3-0.4c-0.2-0.2-0.4-0.3-0.6-0.4c-0.8-0.3-1.5-0.6-2.3-0.9    c-0.5-0.2-1-0.6-1.5-0.8c-0.2-0.3-0.4-0.8-0.5-1c-0.5,0.2-0.9,0.5-1.3,0.5c-1.2-0.2-2.4-0.5-3.6-0.7c-1.1-0.2-2.3-0.3-3.5-0.5    c-0.2,0-0.3,0-0.6,0.1c0,0.3,0.1,0.5,0.1,0.6c-0.8,0-1.6,0.1-2.4,0.1c0,0.1,0,0.2,0,0.3c0.9,0.1,1.9,0.1,2.8,0    c1.7-0.2,3.3-0.4,4.7,0.9c0.2,0.2,0.5,0.3,0.8,0.3c0.6,0,0.7,0.4,0.8,0.9c-0.3,0-0.5,0-0.9,0c1.1,0.9,2.2,1.7,3.2,2.5    c0,0,0.1-0.1,0.1-0.1c-0.2-0.2-0.4-0.4-0.7-0.6c0.2-0.1,0.4-0.3,0.5-0.3c0.7,0.1,1.4,0.3,2.2,0.5c-0.5-0.8-1.2-1.1-2-1.3    c-0.7-0.2-1.5-0.3-2.2-0.4c0.1-0.3,0.3-0.6,0.4-0.9c0.4,0.1,0.8,0.2,1.3,0.3c1.9,0.4,3.3,1.3,4.3,3.1c0.2,0.3,0.5,0.5,0.8,0.8    C56.6,45.1,56.7,45.2,56.8,45.4z M35.3,50.9c0,0,0-0.1,0-0.1c0.5,0,1.1-0.1,1.6-0.1c0.6,0,1.1-0.1,1.7-0.1c0.2,0,0.4-0.2,0.5-0.3    c0.6-0.8,0.7-3,0.3-3.8c-0.6-1.2-1.9-1.6-3.2-1.2c-0.4,0.1-0.7,0.3-1.1,0.3c-1.9,0.2-2.9,1.6-3.8,3.1c-0.4,0.7-0.2,1.2,0.6,1.5    C33.1,50.5,34.2,50.6,35.3,50.9z M54.7,50.5c-0.1-0.1-0.1-0.1-0.2-0.2c-0.1,0-0.2,0-0.3,0c-0.7,0.3-1.3,0.7-2,0.9    c-1.6,0.6-3.3,0.7-5,0.8c-0.4,0-0.7,0.2-1.1,0.2c-0.9-0.1-1.7-0.5-2.6-0.4c-1.9,0-3.8-0.4-5.6,0.1c-0.4,0.1-0.8,0.3-1.2,0.3    c-1.6,0-3.1,0-4.7,0c-0.5,0-1.1-0.3-1.6-0.5c-0.5-0.2-1-0.4-1.5-0.6c-1-0.3-1.3-1-0.7-1.6c-0.3-0.3-0.5-0.7-0.8-0.9    c-0.7-0.6-1.1-1.9-0.7-2.7c0.4-0.8,0.8-1.5,1.3-2.3c-0.1,0-0.1-0.1-0.2-0.1c-0.7,0.9-1.3,1.7-2,2.6c-0.1,0-0.1,0-0.2-0.1    c0.2-0.6,0.3-1.1,0.5-1.7c-0.5,0.3-0.9,0.7-1.2,1.1c-0.5,0.5-0.6,0.9-0.2,1.5c0.5,0.7,0.9,1.3,1.4,2c0.5,0.8,0.9,1.8,2,2.1    c0.2,0,0.5,0.2,0.7,0.4c1.7,1.3,3.7,1.7,5.8,2c0.5,0.1,0.9,0.3,1.4,0.4c0.3,0.1,0.7,0.1,1,0.2c0,0,0-0.1,0-0.1    c-0.2-0.1-0.4-0.2-0.6-0.3c3.7-1.6,7.6-0.8,11.4-0.6c-0.2,0.1-0.4,0.2-0.6,0.2c1.3,0.6,1.4,0.7,2.3-0.1c0.7-0.6,1.4-0.6,2.2-0.8    c0.2-0.1,0.5-0.2,0.7-0.3c0.5-0.3,0.9-0.6,1.3-0.9C54.1,51,54.4,50.7,54.7,50.5z M50.5,50.5c-0.5-1.2-1.1-2.3-2.3-2.9    c-1.1-0.5-2.1-1-3.4-1.1c-1.8-0.2-3.1,0.5-3.4,2.3c-0.1,0.6,0.1,1.3,0.4,1.9c0.1,0.2,0.7,0.2,1.1,0.3c1,0.1,2,0,2.9,0.2    C47.6,51.5,49,50.8,50.5,50.5z M40.9,46.6c0.8-0.3,1.5-0.5,2.3-0.7c0.5-0.1,1-0.1,1.5-0.3c0.7-0.2,1.2,0,1.8,0.2    c0.2,0.1,0.4,0.2,0.5,0.3c0.6,0.3,1.3,0.5,1.8,0.8c0.7,0.4,1.4,0.2,1.6-0.6c0.3-1.3,0-2-1.1-2.7c-0.6-0.4-1.4-0.7-2.1-1    c-1.3-0.5-2.7-0.4-4-0.1c-1.1,0.2-1.8,1-2.5,1.7c-0.3,0.3-0.5,0.8-0.2,1.3C40.6,45.9,40.8,46.3,40.9,46.6z M40.1,17.6    c-1.6,1.4-1.4,6.6,0.2,8.1C42.2,24,42.5,21.3,40.1,17.6z M20.4,40.7c0.1,0,0.1-0.1,0.2-0.1c0.4-2.6-1.2-4.2-2.8-5.4    c-1.1-0.9-2.6-1.2-4-1.6c-0.2,0-0.3-0.1-0.5-0.1c1.2,1.3,2.6,2.3,3.8,3.5C18.4,38,19.4,39.4,20.4,40.7z M52.6,30.8    c1.2-1.5,2.3-2.9,2.4-4.7c0-2.2-0.3-4.3-0.4-6.6c-0.4,0.4-0.6,0.7-0.9,0.9c-0.1,0.1-0.1,0.2-0.1,0.3c0,0.2,0.1,0.4,0.1,0.6    c0,0.4-0.2,0.8-0.2,1.2c-0.1,1.8-0.2,3.5-0.4,5.3C53,28.8,52.8,29.7,52.6,30.8z M26.3,18.2c1.4,3,4.6,5.2,7.6,4.6    C31.6,20.6,29,19.4,26.3,18.2z M12.6,33.6c0.4,3,4,6.5,6.5,6.3C17.4,37.2,14.7,35.7,12.6,33.6z M57.2,37.4c2.6,0.3,5.5-4.5,5-8.1    C61.1,32.4,58.9,34.7,57.2,37.4z M20.6,58.3c-2.9,0.1-4.8,2-7,3.4C16.5,62,19.6,60.6,20.6,58.3z M27.9,30.5    c2.9-0.2,5.4-1.4,7.9-2.9C34.1,26.7,29.9,28.3,27.9,30.5z M19.8,57.6c-1.1-0.9-2.2-0.5-3.2-0.1c-1.7,0.7-3.1,1.9-4.3,3.3    c-0.4,0.4-0.7,0.8-1.1,1.2c0.1,0.1,0.1,0.1,0.2,0.2C14,60.5,16.4,58.2,19.8,57.6z M26.5,17.6c1.1,0.6,2,1,3,1.5    c1.6,0.8,3.2,1.7,4.4,3c0.3,0.3,0.6,0.5,1,0.7C34.2,20.1,29.2,17.5,26.5,17.6z M56.7,36.5c0.3-0.3,0.5-0.4,0.7-0.6    c0.4-0.6,0.8-1.2,1.2-1.9c0.8-1.2,1.6-2.4,2.5-3.6c0.2-0.2,0.3-0.5,0.5-0.8C58.2,32,56.9,33.9,56.7,36.5z M48.7,54.7    c0-0.1,0-0.2,0-0.3c-0.6,0-1.3,0-1.9-0.1c-0.9-0.2-1.7-0.5-2.8-0.8c0.3,0.3,0.5,0.5,0.8,0.7c-1.8,0.3-3.6,0.6-5.5,0.9    c0.4,0.1,1,0,1.2,0.2c0.4,0.3,0.7,0.2,1,0.1c1.5-0.5,3-0.5,4.5-0.2C47,55.5,48,55.4,48.7,54.7z M44.2,56.1    c-0.2,0.3-0.3,0.6-0.4,0.6c-1,0.2-1.9,0.4-2.9,0.6c-0.6,0.1-1.3,0.3-1.9,0.5c0,0.1,0,0.2,0.1,0.2c0.2,0,0.5-0.1,0.7-0.1    c1.3-0.3,2.7-0.8,4.1-0.3c0.1,0,0.3,0,0.5-0.1c1-0.3,2-0.5,3-0.8c0.6-0.1,1.1-0.4,1.4-1c-0.8,0.1-1.5,0.4-2.3,0.5    C45.6,56.4,44.8,56.2,44.2,56.1z M51.7,54.7c2.3-0.4,2.5-0.5,3.9-1.7c0.1,0,0.1,0,0.2-0.1c0.2-0.2,0.4-0.5,0.6-0.8    c0.1-0.1,0.1-0.3,0.2-0.3c1.1-0.4,1.5-1.6,2.3-2.3c0,0,0-0.1,0-0.3c-0.4,0.1-0.8,0.1-0.9,0.4c-0.7,1-1.2,2.2-2.6,2.6    c-0.6,0.2-1.2,0.7-1.7,1c0.3,0.4,0.1,0.7-0.2,0.9c-0.3,0.2-0.8,0.2-1.1,0.3C52,54.4,51.9,54.6,51.7,54.7z M52.4,29.1    c0.2-2.6,0.5-5.2,0.7-7.8C52,22.4,51.2,27.6,52.4,29.1z M30.6,30.7c1.4,0.3,2.8,0.2,4-0.7c0.5-0.4,1.1-0.7,1-1.6    c-0.9,0.5-1.7,0.9-2.5,1.3C32.3,30.1,31.4,30.4,30.6,30.7z M29.4,53c-0.6-1-4.6-2.3-5.8-1.9C23.9,51.6,28.2,53,29.4,53z M31.4,54    c1.2,2.1,5.8,3.5,7.4,2.3c-1.3-0.2-2.7-0.2-3.9-0.6C33.7,55.3,32.5,54.5,31.4,54z M34.5,42c1-0.4,1.9-0.7,2.8-1    c-2,0-4.1-0.3-5.9,1.1c0.9-0.3,1.8-0.5,2.9-0.9c-0.2,0.6-0.4,1-0.6,1.5c0.5-0.2,0.9-0.3,1.6-0.5C34.9,42.1,34.7,42,34.5,42z     M34.3,38.6c1.7,0.6,3.3,0.5,4.9,0C37.6,37.8,36,38.2,34.3,38.6z M29.9,41.5c-2.4,0.9-4.8,1.7-6.3,3.9c0.5-0.3,0.8-0.7,1.3-1    c0.8-0.5,1.8-0.8,2.6-1.3C28.3,42.6,29.1,42,29.9,41.5z M38.5,39.3c-0.7,0-1.4-0.3-1.8,0.5c0,0.1-0.3,0.1-0.4,0.1    c-0.3,0-0.6,0.1-1,0.2c1.8,0.1,3.4,0.3,5,0.4c0.3,0,0.6-0.1,0.9-0.1c0-0.1,0-0.2,0-0.2c-0.7,0-1.4-0.1-2.2-0.1    C38.7,40,38.4,39.9,38.5,39.3z M54.5,45.8c-1-0.3-1.9-0.5-3-0.8c0.5,0.4,0.9,0.7,1.3,1.1c0,0-0.1,0.2-0.1,0.4    c0.4,0.1,0.8,0.2,1.1,0.2c0,0,0-0.1,0-0.1c-0.1-0.1-0.3-0.3-0.4-0.4c0.4-0.1,0.8,0,1.1-0.1c0.2,0,0.3-0.4,0.5-0.5c0,0,0,0-0.1-0.1    C54.8,45.7,54.7,45.8,54.5,45.8z M38,57.5c-0.8-0.2-1.6-0.5-2.3-0.5c-0.7,0-1.3-0.9-2.1-0.3C35.3,57.7,37.3,58.1,38,57.5z     M32.7,44.4c-0.1-0.1-0.1-0.3-0.2-0.4c-0.4,0.1-1,0.1-1,0.2c0,0.7-0.5,0.8-1,0.8c-0.1-0.2-0.2-0.4-0.2-0.6c-0.1,0-0.1,0-0.2,0    c-0.1,0.4-0.1,0.7-0.2,1.1C31.2,45.7,31.8,44.7,32.7,44.4z M65.4,58.3c-0.1,0-0.1,0.1-0.2,0.1c0.1,0.3,0.2,0.6,0.5,0.8    c0.3,0.3,0.7,0.5,1.1,0.8c0.5,0.4,0.7,0.2,0.7-0.3C66.7,59.2,66,58.8,65.4,58.3z M42,41.3c0.8,0,1.6-0.1,2.3-0.1    c-0.2-0.3-0.6-0.3-0.6-0.5c-0.2-0.7-0.7-0.5-1.2-0.5C43.3,41,41.9,40.8,42,41.3z M49.3,55.6c0,0.1,0,0.2,0,0.3c0.7,0,1.5,0,2.2,0    c0.1,0,0.2-0.2,0.3-0.3c0,0-0.1-0.2-0.2-0.2C50.9,55.5,50.1,55.6,49.3,55.6z M40,37.5c0,0.4-0.1,0.7-0.1,1c0.6-0.1,1.3-0.2,2-0.3    c0-0.1,0-0.1,0-0.2C41.2,37.9,40.6,37.7,40,37.5z M49.7,57.7c-0.3-0.7-0.8-0.7-1.3-0.8c-0.1,0.2-0.2,0.5-0.4,0.8    C48.6,57.7,49.1,57.7,49.7,57.7z M25.4,49.8c0,0,0.1-0.1,0.1-0.1c-0.6-0.4-1.1-0.7-1.7-1.1c-0.2,0.4-0.3,0.8,0.2,0.9    C24.4,49.5,24.9,49.6,25.4,49.8z M63,56.8c0.1-0.1,0.1-0.2,0.2-0.3c-0.7-0.5-1.4-0.9-2.1-1.4c-0.1,0.1-0.1,0.2-0.2,0.2    C61.7,55.9,62.3,56.3,63,56.8z M36.4,41.7c0,0.4-0.1,0.6-0.1,0.9c0.4,0,0.8-0.1,1.2-0.1c-0.1-0.2-0.3-0.4-0.5-0.7    C36.9,41.8,36.7,41.8,36.4,41.7z M67.4,57c0,1,0.4,1.2,1.5,0.7C68.3,57.4,67.9,57.2,67.4,57z M39.9,60.9c0-0.1-0.1-0.1-0.1-0.2    c-0.4,0.2-0.9,0.3-1.3,0.5C39.2,61.8,39.5,61.2,39.9,60.9z M31.3,55.1c-0.3-0.9-1-0.9-1.9-0.8C30.2,54.6,30.7,54.9,31.3,55.1z     M60.1,53.8c0.6,0.3,1.1,0.5,1.6,0.8c0-0.1,0.1-0.1,0.1-0.2c-0.4-0.3-0.9-0.6-1.3-0.8C60.4,53.5,60.2,53.7,60.1,53.8z M30.4,55.8    c0-0.1,0-0.2,0.1-0.2c-0.6-0.2-1.2-0.4-1.8-0.5c0,0.1-0.1,0.2-0.1,0.3C29.2,55.5,29.8,55.7,30.4,55.8z M16.4,53.7    c0-0.1,0-0.2,0-0.2c-0.8,0.1-1.5,0.1-2.4,0.2C14.9,53.7,15.6,53.7,16.4,53.7z"></path><path d="M56.5,45c-0.1-0.3-0.3-0.6-0.4-0.9c0.4,0.1,0.8,0.3,1.1,0.5c0.2,0.1,0.2,0.4,0.3,0.6c-0.2,0.1-0.4,0.2-0.7,0.2    C56.7,45.2,56.6,45.1,56.5,45z"></path></g></g></svg>