<svg xmlns="http://www.w3.org/2000/svg" xmlns:xlink="http://www.w3.org/1999/xlink" version="1.1" x="0px" y="0px" viewBox="0 0 100 100" enable-background="new 0 0 100 100" xml:space="preserve"><symbol id="a" viewBox="-2.201 -2.202 4.403 4.404"><path d="M2.202,0c0-1.216-0.985-2.202-2.202-2.202c-1.216,0-2.201,0.986-2.201,2.202S-1.216,2.202,0,2.202   C1.217,2.202,2.202,1.216,2.202,0z"></path></symbol><g><use xlink:href="#a" width="4.403" height="4.404" x="-2.201" y="-2.202" transform="matrix(0.3831 0 0 -0.3831 74.4043 22.3823)" overflow="visible"></use><use xlink:href="#a" width="4.403" height="4.404" x="-2.201" y="-2.202" transform="matrix(0.3831 0 0 -0.3831 69.793 27.9194)" overflow="visible"></use><use xlink:href="#a" width="4.403" height="4.404" x="-2.201" y="-2.202" transform="matrix(0.3831 0 0 -0.3831 87.3926 37.6714)" overflow="visible"></use><use xlink:href="#a" width="4.403" height="4.404" x="-2.201" y="-2.202" transform="matrix(0.3831 0 0 -0.3831 76.6152 39.6938)" overflow="visible"></use><use xlink:href="#a" width="4.403" height="4.404" x="-2.201" y="-2.202" transform="matrix(0.3831 0 0 -0.3831 49.7212 27.0757)" overflow="visible"></use><use xlink:href="#a" width="4.403" height="4.404" x="-2.201" y="-2.202" transform="matrix(0.3831 0 0 -0.3831 45.6348 17.8179)" overflow="visible"></use><use xlink:href="#a" width="4.403" height="4.404" x="-2.201" y="-2.202" transform="matrix(0.3831 0 0 -0.3831 63.9463 19.8516)" overflow="visible"></use><use xlink:href="#a" width="4.403" height="4.404" x="-2.201" y="-2.202" transform="matrix(0.3831 0 0 -0.3831 63.1025 36.8281)" overflow="visible"></use><use xlink:href="#a" width="4.403" height="4.404" x="-2.201" y="-2.202" transform="matrix(0.3831 0 0 -0.3831 50.5645 30.8052)" overflow="visible"></use><use xlink:href="#a" width="4.403" height="4.404" x="-2.201" y="-2.202" transform="matrix(0.3831 0 0 -0.3831 40.1807 42.3755)" overflow="visible"></use><use xlink:href="#a" width="4.403" height="4.404" x="-2.201" y="-2.202" transform="matrix(0.3831 0 0 -0.3831 43.4233 32.4917)" overflow="visible"></use><use xlink:href="#a" width="4.403" height="4.404" x="-2.201" y="-2.202" transform="matrix(0.3831 0 0 -0.3831 31.729 27.9189)" overflow="visible"></use><use xlink:href="#a" width="4.403" height="4.404" x="-2.201" y="-2.202" transform="matrix(0.3831 0 0 -0.3831 28.8794 43.3809)" overflow="visible"></use><use xlink:href="#a" width="4.403" height="4.404" x="-2.201" y="-2.202" transform="matrix(0.3831 0 0 -0.3831 25.1123 16.9741)" overflow="visible"></use><use xlink:href="#a" width="4.403" height="4.404" x="-2.201" y="-2.202" transform="matrix(0.3831 0 0 -0.3831 26.2749 24.9131)" overflow="visible"></use><use xlink:href="#a" width="4.403" height="4.404" x="-2.201" y="-2.202" transform="matrix(0.3831 0 0 -0.3831 67.3936 13.6001)" overflow="visible"></use><use xlink:href="#a" width="4.403" height="4.404" x="-2.201" y="-2.202" transform="matrix(0.3831 0 0 -0.3831 19.5845 31.6484)" overflow="visible"></use><use xlink:href="#a" width="4.403" height="4.404" x="-2.201" y="-2.202" transform="matrix(0.3831 0 0 -0.3831 30.8857 15.2871)" overflow="visible"></use><use xlink:href="#a" width="4.403" height="4.404" x="-2.201" y="-2.202" transform="matrix(0.3831 0 0 -0.3831 35.5698 16.9741)" overflow="visible"></use><use xlink:href="#a" width="4.403" height="4.404" x="-2.201" y="-2.202" transform="matrix(0.3831 0 0 -0.3831 39.6562 24.9131)" overflow="visible"></use><use xlink:href="#a" width="4.403" height="4.404" x="-2.201" y="-2.202" transform="matrix(0.3831 0 0 -0.3831 45.6348 11.9131)" overflow="visible"></use><use xlink:href="#a" width="4.403" height="4.404" x="-2.201" y="-2.202" transform="matrix(0.3831 0 0 -0.3831 60.1787 27.9194)" overflow="visible"></use><use xlink:href="#a" width="4.403" height="4.404" x="-2.201" y="-2.202" transform="matrix(0.3831 0 0 -0.3831 19.5845 23.2261)" overflow="visible"></use><use xlink:href="#a" width="4.403" height="4.404" x="-2.201" y="-2.202" transform="matrix(0.3831 0 0 -0.3831 29.1987 29.6064)" overflow="visible"></use><use xlink:href="#a" width="4.403" height="4.404" x="-2.201" y="-2.202" transform="matrix(0.3831 0 0 -0.3831 28.0356 36.2212)" overflow="visible"></use><use xlink:href="#a" width="4.403" height="4.404" x="-2.201" y="-2.202" transform="matrix(0.3831 0 0 -0.3831 89.4727 43.1895)" overflow="visible"></use><use xlink:href="#a" width="4.403" height="4.404" x="-2.201" y="-2.202" transform="matrix(0.3831 0 0 -0.3831 81.0947 22.3823)" overflow="visible"></use><use xlink:href="#a" width="4.403" height="4.404" x="-2.201" y="-2.202" transform="matrix(0.3831 0 0 -0.3831 81.0947 29.6064)" overflow="visible"></use><use xlink:href="#a" width="4.403" height="4.404" x="-2.201" y="-2.202" transform="matrix(0.3831 0 0 -0.3831 52.7188 43.3809)" overflow="visible"></use><use xlink:href="#a" width="4.403" height="4.404" x="-2.201" y="-2.202" transform="matrix(0.3831 0 0 -0.3831 81.0947 34.1792)" overflow="visible"></use><use xlink:href="#a" width="4.403" height="4.404" x="-2.201" y="-2.202" transform="matrix(0.3831 0 0 -0.3831 81.0947 46.0439)" overflow="visible"></use><use xlink:href="#a" width="4.403" height="4.404" x="-2.201" y="-2.202" transform="matrix(0.3831 0 0 -0.3831 70.6367 45.2007)" overflow="visible"></use><use xlink:href="#a" width="4.403" height="4.404" x="-2.201" y="-2.202" transform="matrix(0.3831 0 0 -0.3831 66.8701 51.3545)" overflow="visible"></use><use xlink:href="#a" width="4.403" height="4.404" x="-2.201" y="-2.202" transform="matrix(0.3831 0 0 -0.3831 72.7178 36.8281)" overflow="visible"></use><use xlink:href="#a" width="4.403" height="4.404" x="-2.201" y="-2.202" transform="matrix(0.3831 0 0 -0.3831 59.335 46.2061)" overflow="visible"></use><use xlink:href="#a" width="4.403" height="4.404" x="-2.201" y="-2.202" transform="matrix(0.3831 0 0 -0.3831 53.5625 20.6953)" overflow="visible"></use><use xlink:href="#a" width="4.403" height="4.404" x="-2.201" y="-2.202" transform="matrix(0.3831 0 0 -0.3831 68.2373 21.5391)" overflow="visible"></use><use xlink:href="#a" width="4.403" height="4.404" x="-2.201" y="-2.202" transform="matrix(0.3831 0 0 -0.3831 48.0342 47.2119)" overflow="visible"></use><use xlink:href="#a" width="4.403" height="4.404" x="-2.201" y="-2.202" transform="matrix(0.3831 0 0 -0.3831 32.9658 51.3545)" overflow="visible"></use><use xlink:href="#a" width="4.403" height="4.404" x="-2.201" y="-2.202" transform="matrix(0.3831 0 0 -0.3831 33.8091 40.5371)" overflow="visible"></use><use xlink:href="#a" width="4.403" height="4.404" x="-2.201" y="-2.202" transform="matrix(0.3831 0 0 -0.3831 19.5845 50.0137)" overflow="visible"></use><use xlink:href="#a" width="4.403" height="4.404" x="-2.201" y="-2.202" transform="matrix(0.3831 0 0 -0.3831 21.6641 36.2212)" overflow="visible"></use><use xlink:href="#a" width="4.403" height="4.404" x="-2.201" y="-2.202" transform="matrix(0.3831 0 0 -0.3831 21.6641 42.5371)" overflow="visible"></use><use xlink:href="#a" width="4.403" height="4.404" x="-2.201" y="-2.202" transform="matrix(0.3831 0 0 -0.3831 61.8662 42.3457)" overflow="visible"></use><use xlink:href="#a" width="4.403" height="4.404" x="-2.201" y="-2.202" transform="matrix(0.3831 0 0 -0.3831 29.7227 65.3936)" overflow="visible"></use><use xlink:href="#a" width="4.403" height="4.404" x="-2.201" y="-2.202" transform="matrix(0.3831 0 0 -0.3831 15.8174 45.2007)" overflow="visible"></use><use xlink:href="#a" width="4.403" height="4.404" x="-2.201" y="-2.202" transform="matrix(0.3831 0 0 -0.3831 17.0537 38.8501)" overflow="visible"></use><use xlink:href="#a" width="4.403" height="4.404" x="-2.201" y="-2.202" transform="matrix(0.3831 0 0 -0.3831 10.3628 50.564)" overflow="visible"></use><use xlink:href="#a" width="4.403" height="4.404" x="-2.201" y="-2.202" transform="matrix(0.3831 0 0 -0.3831 14.9736 33.3354)" overflow="visible"></use><use xlink:href="#a" width="4.403" height="4.404" x="-2.201" y="-2.202" transform="matrix(0.3831 0 0 -0.3831 35.8892 30.8047)" overflow="visible"></use><use xlink:href="#a" width="4.403" height="4.404" x="-2.201" y="-2.202" transform="matrix(0.3831 0 0 -0.3831 89.4727 50.8574)" overflow="visible"></use><use xlink:href="#a" width="4.403" height="4.404" x="-2.201" y="-2.202" transform="matrix(0.3831 0 0 -0.3831 83.625 56.7285)" overflow="visible"></use><use xlink:href="#a" width="4.403" height="4.404" x="-2.201" y="-2.202" transform="matrix(0.3831 0 0 -0.3831 81.0947 71.2178)" overflow="visible"></use><use xlink:href="#a" width="4.403" height="4.404" x="-2.201" y="-2.202" transform="matrix(0.3831 0 0 -0.3831 85.7051 40.5371)" overflow="visible"></use><use xlink:href="#a" width="4.403" height="4.404" x="-2.201" y="-2.202" transform="matrix(0.3831 0 0 -0.3831 77.459 48.8989)" overflow="visible"></use><use xlink:href="#a" width="4.403" height="4.404" x="-2.201" y="-2.202" transform="matrix(0.3831 0 0 -0.3831 74.4043 52.5332)" overflow="visible"></use><use xlink:href="#a" width="4.403" height="4.404" x="-2.201" y="-2.202" transform="matrix(0.3831 0 0 -0.3831 66.5508 59.5215)" overflow="visible"></use><use xlink:href="#a" width="4.403" height="4.404" x="-2.201" y="-2.202" transform="matrix(0.3831 0 0 -0.3831 55.25 50.0137)" overflow="visible"></use><use xlink:href="#a" width="4.403" height="4.404" x="-2.201" y="-2.202" transform="matrix(0.3831 0 0 -0.3831 59.335 72.9043)" overflow="visible"></use><use xlink:href="#a" width="4.403" height="4.404" x="-2.201" y="-2.202" transform="matrix(0.3831 0 0 -0.3831 50.5645 50.5112)" overflow="visible"></use><use xlink:href="#a" width="4.403" height="4.404" x="-2.201" y="-2.202" transform="matrix(0.3831 0 0 -0.3831 52.7197 38.0063)" overflow="visible"></use><use xlink:href="#a" width="4.403" height="4.404" x="-2.201" y="-2.202" transform="matrix(0.3831 0 0 -0.3831 47.1904 56.7285)" overflow="visible"></use><use xlink:href="#a" width="4.403" height="4.404" x="-2.201" y="-2.202" transform="matrix(0.3831 0 0 -0.3831 40.5 48.0552)" overflow="visible"></use><use xlink:href="#a" width="4.403" height="4.404" x="-2.201" y="-2.202" transform="matrix(0.3831 0 0 -0.3831 48.0342 38.5151)" overflow="visible"></use><use xlink:href="#a" width="4.403" height="4.404" x="-2.201" y="-2.202" transform="matrix(0.3831 0 0 -0.3831 44.791 63.5557)" overflow="visible"></use><use xlink:href="#a" width="4.403" height="4.404" x="-2.201" y="-2.202" transform="matrix(0.3831 0 0 -0.3831 36.7329 55.8857)" overflow="visible"></use><use xlink:href="#a" width="4.403" height="4.404" x="-2.201" y="-2.202" transform="matrix(0.3831 0 0 -0.3831 25.4312 50.3491)" overflow="visible"></use><use xlink:href="#a" width="4.403" height="4.404" x="-2.201" y="-2.202" transform="matrix(0.3831 0 0 -0.3831 35.8892 68.5947)" overflow="visible"></use><use xlink:href="#a" width="4.403" height="4.404" x="-2.201" y="-2.202" transform="matrix(0.3831 0 0 -0.3831 33.8091 45.0386)" overflow="visible"></use><use xlink:href="#a" width="4.403" height="4.404" x="-2.201" y="-2.202" transform="matrix(0.3831 0 0 -0.3831 87.3926 57.7344)" overflow="visible"></use><use xlink:href="#a" width="4.403" height="4.404" x="-2.201" y="-2.202" transform="matrix(0.3831 0 0 -0.3831 26.2749 55.8857)" overflow="visible"></use><use xlink:href="#a" width="4.403" height="4.404" x="-2.201" y="-2.202" transform="matrix(0.3831 0 0 -0.3831 15.8174 62.7119)" overflow="visible"></use><use xlink:href="#a" width="4.403" height="4.404" x="-2.201" y="-2.202" transform="matrix(0.3831 0 0 -0.3831 10.3628 58.2314)" overflow="visible"></use><use xlink:href="#a" width="4.403" height="4.404" x="-2.201" y="-2.202" transform="matrix(0.3831 0 0 -0.3831 58.0996 87.3877)" overflow="visible"></use><use xlink:href="#a" width="4.403" height="4.404" x="-2.201" y="-2.202" transform="matrix(0.3831 0 0 -0.3831 11.2065 38.5151)" overflow="visible"></use><use xlink:href="#a" width="4.403" height="4.404" x="-2.201" y="-2.202" transform="matrix(0.3831 0 0 -0.3831 85.7051 65.3936)" overflow="visible"></use><use xlink:href="#a" width="4.403" height="4.404" x="-2.201" y="-2.202" transform="matrix(0.3831 0 0 -0.3831 73.5605 60.3652)" overflow="visible"></use><use xlink:href="#a" width="4.403" height="4.404" x="-2.201" y="-2.202" transform="matrix(0.3831 0 0 -0.3831 66.8701 84.9727)" overflow="visible"></use><use xlink:href="#a" width="4.403" height="4.404" x="-2.201" y="-2.202" transform="matrix(0.3831 0 0 -0.3831 76.6152 68.0859)" overflow="visible"></use><use xlink:href="#a" width="4.403" height="4.404" x="-2.201" y="-2.202" transform="matrix(0.3831 0 0 -0.3831 65.707 67.751)" overflow="visible"></use><use xlink:href="#a" width="4.403" height="4.404" x="-2.201" y="-2.202" transform="matrix(0.3831 0 0 -0.3831 75.7715 76.2461)" overflow="visible"></use><use xlink:href="#a" width="4.403" height="4.404" x="-2.201" y="-2.202" transform="matrix(0.3831 0 0 -0.3831 45.6348 76.2461)" overflow="visible"></use><use xlink:href="#a" width="4.403" height="4.404" x="-2.201" y="-2.202" transform="matrix(0.3831 0 0 -0.3831 57.2559 79.4688)" overflow="visible"></use><use xlink:href="#a" width="4.403" height="4.404" x="-2.201" y="-2.202" transform="matrix(0.3831 0 0 -0.3831 48.8779 84.1289)" overflow="visible"></use><use xlink:href="#a" width="4.403" height="4.404" x="-2.201" y="-2.202" transform="matrix(0.3831 0 0 -0.3831 59.335 64.2256)" overflow="visible"></use><use xlink:href="#a" width="4.403" height="4.404" x="-2.201" y="-2.202" transform="matrix(0.3831 0 0 -0.3831 69.4736 77.0889)" overflow="visible"></use><use xlink:href="#a" width="4.403" height="4.404" x="-2.201" y="-2.202" transform="matrix(0.3831 0 0 -0.3831 53.5625 72.0615)" overflow="visible"></use><use xlink:href="#a" width="4.403" height="4.404" x="-2.201" y="-2.202" transform="matrix(0.3831 0 0 -0.3831 48.0342 65.2314)" overflow="visible"></use><use xlink:href="#a" width="4.403" height="4.404" x="-2.201" y="-2.202" transform="matrix(0.3831 0 0 -0.3831 36.7329 84.1289)" overflow="visible"></use><use xlink:href="#a" width="4.403" height="4.404" x="-2.201" y="-2.202" transform="matrix(0.3831 0 0 -0.3831 43.4233 75.4023)" overflow="visible"></use><use xlink:href="#a" width="4.403" height="4.404" x="-2.201" y="-2.202" transform="matrix(0.3831 0 0 -0.3831 36.7329 77.0889)" overflow="visible"></use><use xlink:href="#a" width="4.403" height="4.404" x="-2.201" y="-2.202" transform="matrix(0.3831 0 0 -0.3831 43.4233 68.9297)" overflow="visible"></use><use xlink:href="#a" width="4.403" height="4.404" x="-2.201" y="-2.202" transform="matrix(0.3831 0 0 -0.3831 60.1787 58.2314)" overflow="visible"></use><use xlink:href="#a" width="4.403" height="4.404" x="-2.201" y="-2.202" transform="matrix(0.3831 0 0 -0.3831 25.4316 71.2178)" overflow="visible"></use><use xlink:href="#a" width="4.403" height="4.404" x="-2.201" y="-2.202" transform="matrix(0.3831 0 0 -0.3831 37.5762 60.2539)" overflow="visible"></use><use xlink:href="#a" width="4.403" height="4.404" x="-2.201" y="-2.202" transform="matrix(0.3831 0 0 -0.3831 17.8975 67.9131)" overflow="visible"></use><use xlink:href="#a" width="4.403" height="4.404" x="-2.201" y="-2.202" transform="matrix(0.3831 0 0 -0.3831 22.5078 63.5557)" overflow="visible"></use><use xlink:href="#a" width="4.403" height="4.404" x="-2.201" y="-2.202" transform="matrix(0.3831 0 0 -0.3831 22.5078 75.4023)" overflow="visible"></use><use xlink:href="#a" width="4.403" height="4.404" x="-2.201" y="-2.202" transform="matrix(0.3831 0 0 -0.3831 28.8789 77.0889)" overflow="visible"></use><use xlink:href="#a" width="4.403" height="4.404" x="-2.201" y="-2.202" transform="matrix(0.3831 0 0 -0.3831 54.4062 13.6001)" overflow="visible"></use></g></svg>